<svg xmlns="http://www.w3.org/2000/svg" viewBox="0 0 512 512" id="meal"><path fill="none"  stroke="#3949ab" stroke-linecap="round" stroke-linejoin="round" stroke-width="16" d="M139 240h90a75 75 0 0 1 75 75v5h0H64h0v-5a75 75 0 0 1 75-75zm165 85.836V320H64v5.836a21.115 21.115 0 0 0 30.557 18.885h0a21.114 21.114 0 0 1 18.886 0l21.114 10.558a21.114 21.114 0 0 0 18.886 0l21.114-10.558a21.114 21.114 0 0 1 18.886 0l21.114 10.558a21.114 21.114 0 0 0 18.886 0l21.114-10.558a21.114 21.114 0 0 1 18.886 0h0A21.115 21.115 0 0 0 304 325.836z" class="colorStroke000000 svgStroke"></path><path fill="none" stroke="#3949ab" stroke-linecap="round" stroke-linejoin="round" stroke-width="16" d="M69.444 340H64v40h100l8.215 8.215a16.667 16.667 0 0 0 23.57 0L204 380l26.133 39.199a16.667 16.667 0 0 0 27.734 0L284 380h20v-40h-5.45" class="colorStroke000000 svgStroke"></path><path fill="none" stroke="#3949ab" stroke-linecap="round" stroke-linejoin="round" stroke-width="16" d="M84 380a20 20 0 0 0-20 20h0a20 20 0 0 0 20 20h146.667M284 380a20 20 0 0 1 20 20h0a20 20 0 0 1-20 20h-26.667M64 420h0a60 60 0 0 0 60 60h120a60 60 0 0 0 60-60h0M64 420h17.142M304 420h-20M254.566 160.296H480v31.408H254.566zM286.038 266.303l-6.353-74.599" class="colorStroke000000 svgStroke"></path><path fill="none" stroke="#3949ab" stroke-linecap="round" stroke-linejoin="round" stroke-width="16" d="m454.175 191.704-24.428 286.827H304.113l-3.33-39.104M366.842 96.286v64.01M429.658 33.469l-62.816 62.817" class="colorStroke000000 svgStroke"></path></svg>